<svg width="24" height="25" viewBox="0 0 24 25" fill="none" xmlns="http://www.w3.org/2000/svg">
<path d="M9.15957 12.1493C9.12957 12.1493 9.10957 12.1493 9.07957 12.1493C9.02957 12.1393 8.95957 12.1393 8.89957 12.1493C5.99957 12.0593 3.80957 9.7793 3.80957 6.9693C3.80957 4.1093 6.13957 1.7793 8.99957 1.7793C11.8596 1.7793 14.1896 4.1093 14.1896 6.9693C14.1796 9.7793 11.9796 12.0593 9.18957 12.1493C9.17957 12.1493 9.16957 12.1493 9.15957 12.1493ZM8.99957 3.2793C6.96957 3.2793 5.30957 4.9393 5.30957 6.9693C5.30957 8.9693 6.86957 10.5793 8.85957 10.6493C8.91957 10.6393 9.04957 10.6393 9.17957 10.6493C11.1396 10.5593 12.6796 8.9493 12.6896 6.9693C12.6896 4.9393 11.0296 3.2793 8.99957 3.2793Z" fill="white"/>
<path d="M16.5396 12.2793C16.5096 12.2793 16.4796 12.2793 16.4496 12.2693C16.0396 12.3093 15.6196 12.0193 15.5796 11.6093C15.5396 11.1993 15.7896 10.8293 16.1996 10.7793C16.3196 10.7693 16.4496 10.7693 16.5596 10.7693C18.0196 10.6893 19.1596 9.4893 19.1596 8.0193C19.1596 6.4993 17.9296 5.2693 16.4096 5.2693C15.9996 5.2793 15.6596 4.9393 15.6596 4.5293C15.6596 4.1193 15.9996 3.7793 16.4096 3.7793C18.7496 3.7793 20.6596 5.6893 20.6596 8.0293C20.6596 10.3293 18.8596 12.1893 16.5696 12.2793C16.5596 12.2793 16.5496 12.2793 16.5396 12.2793Z" fill="white"/>
<path d="M9.16961 23.0793C7.20961 23.0793 5.23961 22.5793 3.74961 21.5793C2.35961 20.6593 1.59961 19.3993 1.59961 18.0293C1.59961 16.6593 2.35961 15.3893 3.74961 14.4593C6.74961 12.4693 11.6096 12.4693 14.5896 14.4593C15.9696 15.3793 16.7396 16.6393 16.7396 18.0093C16.7396 19.3793 15.9796 20.6493 14.5896 21.5793C13.0896 22.5793 11.1296 23.0793 9.16961 23.0793ZM4.57961 15.7193C3.61961 16.3593 3.09961 17.1793 3.09961 18.0393C3.09961 18.8893 3.62961 19.7093 4.57961 20.3393C7.06961 22.0093 11.2696 22.0093 13.7596 20.3393C14.7196 19.6993 15.2396 18.8793 15.2396 18.0193C15.2396 17.1693 14.7096 16.3493 13.7596 15.7193C11.2696 14.0593 7.06961 14.0593 4.57961 15.7193Z" fill="white"/>
<path d="M18.3396 21.2793C17.9896 21.2793 17.6796 21.0393 17.6096 20.6793C17.5296 20.2693 17.7896 19.8793 18.1896 19.7893C18.8196 19.6593 19.3996 19.4093 19.8496 19.0593C20.4196 18.6293 20.7296 18.0893 20.7296 17.5193C20.7296 16.9493 20.4196 16.4093 19.8596 15.9893C19.4196 15.6493 18.8696 15.4093 18.2196 15.2593C17.8196 15.1693 17.5596 14.7693 17.6496 14.3593C17.7396 13.9593 18.1396 13.6993 18.5496 13.7893C19.4096 13.9793 20.1596 14.3193 20.7696 14.7893C21.6996 15.4893 22.2296 16.4793 22.2296 17.5193C22.2296 18.5593 21.6896 19.5493 20.7596 20.2593C20.1396 20.7393 19.3596 21.0893 18.4996 21.2593C18.4396 21.2793 18.3896 21.2793 18.3396 21.2793Z" fill="white"/>
</svg>
