<svg width="24" height="25" viewBox="0 0 24 25" fill="none" xmlns="http://www.w3.org/2000/svg">
<path d="M19.77 11.7793H15.73C13.72 11.7793 12.75 10.8893 12.75 9.0493V4.5093C12.75 2.6693 13.73 1.7793 15.73 1.7793H19.77C21.78 1.7793 22.75 2.6693 22.75 4.5093V9.0393C22.75 10.8893 21.77 11.7793 19.77 11.7793ZM15.73 3.2793C14.39 3.2793 14.25 3.6593 14.25 4.5093V9.0393C14.25 9.8993 14.39 10.2693 15.73 10.2693H19.77C21.11 10.2693 21.25 9.8893 21.25 9.0393V4.5093C21.25 3.6493 21.11 3.2793 19.77 3.2793H15.73Z" fill="white"/>
<path d="M19.77 23.2793H15.73C13.72 23.2793 12.75 22.2993 12.75 20.2993V16.2593C12.75 14.2493 13.73 13.2793 15.73 13.2793H19.77C21.78 13.2793 22.75 14.2593 22.75 16.2593V20.2993C22.75 22.2993 21.77 23.2793 19.77 23.2793ZM15.73 14.7793C14.55 14.7793 14.25 15.0793 14.25 16.2593V20.2993C14.25 21.4793 14.55 21.7793 15.73 21.7793H19.77C20.95 21.7793 21.25 21.4793 21.25 20.2993V16.2593C21.25 15.0793 20.95 14.7793 19.77 14.7793H15.73Z" fill="white"/>
<path d="M8.27 11.7793H4.23C2.22 11.7793 1.25 10.8893 1.25 9.0493V4.5093C1.25 2.6693 2.23 1.7793 4.23 1.7793H8.27C10.28 1.7793 11.25 2.6693 11.25 4.5093V9.0393C11.25 10.8893 10.27 11.7793 8.27 11.7793ZM4.23 3.2793C2.89 3.2793 2.75 3.6593 2.75 4.5093V9.0393C2.75 9.8993 2.89 10.2693 4.23 10.2693H8.27C9.61 10.2693 9.75 9.8893 9.75 9.0393V4.5093C9.75 3.6493 9.61 3.2793 8.27 3.2793H4.23Z" fill="white"/>
<path d="M8.27 23.2793H4.23C2.22 23.2793 1.25 22.2993 1.25 20.2993V16.2593C1.25 14.2493 2.23 13.2793 4.23 13.2793H8.27C10.28 13.2793 11.25 14.2593 11.25 16.2593V20.2993C11.25 22.2993 10.27 23.2793 8.27 23.2793ZM4.23 14.7793C3.05 14.7793 2.75 15.0793 2.75 16.2593V20.2993C2.75 21.4793 3.05 21.7793 4.23 21.7793H8.27C9.45 21.7793 9.75 21.4793 9.75 20.2993V16.2593C9.75 15.0793 9.45 14.7793 8.27 14.7793H4.23Z" fill="white"/>
</svg>
