<svg width="24" height="25" viewBox="0 0 24 25" fill="none" xmlns="http://www.w3.org/2000/svg">
<path d="M8 6.2793C7.59 6.2793 7.25 5.9393 7.25 5.5293V2.5293C7.25 2.1193 7.59 1.7793 8 1.7793C8.41 1.7793 8.75 2.1193 8.75 2.5293V5.5293C8.75 5.9393 8.41 6.2793 8 6.2793Z" fill="white"/>
<path d="M16 6.2793C15.59 6.2793 15.25 5.9393 15.25 5.5293V2.5293C15.25 2.1193 15.59 1.7793 16 1.7793C16.41 1.7793 16.75 2.1193 16.75 2.5293V5.5293C16.75 5.9393 16.41 6.2793 16 6.2793Z" fill="white"/>
<path d="M8.5 15.0296C8.37 15.0296 8.24 14.9996 8.12 14.9496C7.99 14.8996 7.89 14.8296 7.79 14.7396C7.61 14.5496 7.5 14.2996 7.5 14.0296C7.5 13.8996 7.53 13.7696 7.58 13.6496C7.63 13.5296 7.7 13.4196 7.79 13.3196C7.89 13.2296 7.99 13.1596 8.12 13.1096C8.48 12.9596 8.93 13.0396 9.21 13.3196C9.39 13.5096 9.5 13.7696 9.5 14.0296C9.5 14.0896 9.49 14.1596 9.48 14.2296C9.47 14.2896 9.45 14.3496 9.42 14.4096C9.4 14.4696 9.37 14.5296 9.33 14.5896C9.3 14.6396 9.25 14.6896 9.21 14.7396C9.02 14.9196 8.76 15.0296 8.5 15.0296Z" fill="white"/>
<path d="M12 15.0292C11.87 15.0292 11.74 14.9992 11.62 14.9492C11.49 14.8992 11.39 14.8292 11.29 14.7392C11.11 14.5492 11 14.2992 11 14.0292C11 13.8992 11.03 13.7692 11.08 13.6492C11.13 13.5292 11.2 13.4192 11.29 13.3192C11.39 13.2292 11.49 13.1592 11.62 13.1092C11.98 12.9492 12.43 13.0392 12.71 13.3192C12.89 13.5092 13 13.7692 13 14.0292C13 14.0892 12.99 14.1592 12.98 14.2292C12.97 14.2892 12.95 14.3492 12.92 14.4092C12.9 14.4692 12.87 14.5292 12.83 14.5892C12.8 14.6392 12.75 14.6892 12.71 14.7392C12.52 14.9192 12.26 15.0292 12 15.0292Z" fill="white"/>
<path d="M15.5 15.0292C15.37 15.0292 15.24 14.9992 15.12 14.9492C14.99 14.8992 14.89 14.8292 14.79 14.7392C14.75 14.6892 14.71 14.6392 14.67 14.5892C14.63 14.5292 14.6 14.4692 14.58 14.4092C14.55 14.3492 14.53 14.2892 14.52 14.2292C14.51 14.1592 14.5 14.0892 14.5 14.0292C14.5 13.7692 14.61 13.5092 14.79 13.3192C14.89 13.2292 14.99 13.1592 15.12 13.1092C15.49 12.9492 15.93 13.0392 16.21 13.3192C16.39 13.5092 16.5 13.7692 16.5 14.0292C16.5 14.0892 16.49 14.1592 16.48 14.2292C16.47 14.2892 16.45 14.3492 16.42 14.4092C16.4 14.4692 16.37 14.5292 16.33 14.5892C16.3 14.6392 16.25 14.6892 16.21 14.7392C16.02 14.9192 15.76 15.0292 15.5 15.0292Z" fill="white"/>
<path d="M8.5 18.5295C8.37 18.5295 8.24 18.4995 8.12 18.4495C8 18.3995 7.89 18.3295 7.79 18.2395C7.61 18.0495 7.5 17.7895 7.5 17.5295C7.5 17.3995 7.53 17.2695 7.58 17.1495C7.63 17.0195 7.7 16.9095 7.79 16.8195C8.16 16.4495 8.84 16.4495 9.21 16.8195C9.39 17.0095 9.5 17.2695 9.5 17.5295C9.5 17.7895 9.39 18.0495 9.21 18.2395C9.02 18.4195 8.76 18.5295 8.5 18.5295Z" fill="white"/>
<path d="M12 18.5295C11.74 18.5295 11.48 18.4195 11.29 18.2395C11.11 18.0495 11 17.7895 11 17.5295C11 17.3995 11.03 17.2695 11.08 17.1495C11.13 17.0195 11.2 16.9095 11.29 16.8195C11.66 16.4495 12.34 16.4495 12.71 16.8195C12.8 16.9095 12.87 17.0195 12.92 17.1495C12.97 17.2695 13 17.3995 13 17.5295C13 17.7895 12.89 18.0495 12.71 18.2395C12.52 18.4195 12.26 18.5295 12 18.5295Z" fill="white"/>
<path d="M15.5 18.5292C15.24 18.5292 14.98 18.4192 14.79 18.2392C14.7 18.1492 14.63 18.0392 14.58 17.9092C14.53 17.7892 14.5 17.6592 14.5 17.5292C14.5 17.3992 14.53 17.2692 14.58 17.1492C14.63 17.0192 14.7 16.9092 14.79 16.8192C15.02 16.5892 15.37 16.4792 15.69 16.5492C15.76 16.5592 15.82 16.5792 15.88 16.6092C15.94 16.6292 16 16.6592 16.06 16.6992C16.11 16.7292 16.16 16.7792 16.21 16.8192C16.39 17.0092 16.5 17.2692 16.5 17.5292C16.5 17.7892 16.39 18.0492 16.21 18.2392C16.02 18.4192 15.76 18.5292 15.5 18.5292Z" fill="white"/>
<path d="M20.5 10.3691H3.5C3.09 10.3691 2.75 10.0291 2.75 9.61914C2.75 9.20914 3.09 8.86914 3.5 8.86914H20.5C20.91 8.86914 21.25 9.20914 21.25 9.61914C21.25 10.0291 20.91 10.3691 20.5 10.3691Z" fill="white"/>
<path d="M16 23.2793H8C4.35 23.2793 2.25 21.1793 2.25 17.5293V9.0293C2.25 5.3793 4.35 3.2793 8 3.2793H16C19.65 3.2793 21.75 5.3793 21.75 9.0293V17.5293C21.75 21.1793 19.65 23.2793 16 23.2793ZM8 4.7793C5.14 4.7793 3.75 6.1693 3.75 9.0293V17.5293C3.75 20.3893 5.14 21.7793 8 21.7793H16C18.86 21.7793 20.25 20.3893 20.25 17.5293V9.0293C20.25 6.1693 18.86 4.7793 16 4.7793H8Z" fill="white"/>
</svg>
