<svg width="24" height="25" viewBox="0 0 24 25" fill="none" xmlns="http://www.w3.org/2000/svg">
<path d="M12 16.2793C9.93 16.2793 8.25 14.5993 8.25 12.5293C8.25 10.4593 9.93 8.7793 12 8.7793C14.07 8.7793 15.75 10.4593 15.75 12.5293C15.75 14.5993 14.07 16.2793 12 16.2793ZM12 10.2793C10.76 10.2793 9.75 11.2893 9.75 12.5293C9.75 13.7693 10.76 14.7793 12 14.7793C13.24 14.7793 14.25 13.7693 14.25 12.5293C14.25 11.2893 13.24 10.2793 12 10.2793Z" fill="white"/>
<path d="M15.21 22.7196C15 22.7196 14.79 22.6896 14.58 22.6396C13.96 22.4696 13.44 22.0796 13.11 21.5296L12.99 21.3296C12.4 20.3096 11.59 20.3096 11 21.3296L10.89 21.5196C10.56 22.0796 10.04 22.4796 9.42 22.6396C8.79 22.8096 8.14 22.7196 7.59 22.3896L5.87 21.3996C5.26 21.0496 4.82 20.4796 4.63 19.7896C4.45 19.0996 4.54 18.3896 4.89 17.7796C5.18 17.2696 5.26 16.8096 5.09 16.5196C4.92 16.2296 4.49 16.0596 3.9 16.0596C2.44 16.0596 1.25 14.8696 1.25 13.4096V11.6496C1.25 10.1896 2.44 8.99958 3.9 8.99958C4.49 8.99958 4.92 8.82958 5.09 8.53958C5.26 8.24958 5.19 7.78958 4.89 7.27958C4.54 6.66958 4.45 5.94958 4.63 5.26958C4.81 4.57958 5.25 4.00958 5.87 3.65958L7.6 2.66958C8.73 1.99958 10.22 2.38958 10.9 3.53958L11.02 3.73958C11.61 4.75958 12.42 4.75958 13.01 3.73958L13.12 3.54958C13.8 2.38958 15.29 1.99958 16.43 2.67958L18.15 3.66958C18.76 4.01958 19.2 4.58958 19.39 5.27958C19.57 5.96958 19.48 6.67958 19.13 7.28958C18.84 7.79958 18.76 8.25958 18.93 8.54958C19.1 8.83958 19.53 9.00958 20.12 9.00958C21.58 9.00958 22.77 10.1996 22.77 11.6596V13.4196C22.77 14.8796 21.58 16.0696 20.12 16.0696C19.53 16.0696 19.1 16.2396 18.93 16.5296C18.76 16.8196 18.83 17.2796 19.13 17.7896C19.48 18.3996 19.58 19.1196 19.39 19.7996C19.21 20.4896 18.77 21.0596 18.15 21.4096L16.42 22.3996C16.04 22.6096 15.63 22.7196 15.21 22.7196ZM12 19.0196C12.89 19.0196 13.72 19.5796 14.29 20.5696L14.4 20.7596C14.52 20.9696 14.72 21.1196 14.96 21.1796C15.2 21.2396 15.44 21.2096 15.64 21.0896L17.37 20.0896C17.63 19.9396 17.83 19.6896 17.91 19.3896C17.99 19.0896 17.95 18.7796 17.8 18.5196C17.23 17.5396 17.16 16.5296 17.6 15.7596C18.04 14.9896 18.95 14.5496 20.09 14.5496C20.73 14.5496 21.24 14.0396 21.24 13.3996V11.6396C21.24 11.0096 20.73 10.4896 20.09 10.4896C18.95 10.4896 18.04 10.0496 17.6 9.27958C17.16 8.50958 17.23 7.49958 17.8 6.51958C17.95 6.25958 17.99 5.94958 17.91 5.64958C17.83 5.34958 17.64 5.10958 17.38 4.94958L15.65 3.95958C15.22 3.69958 14.65 3.84958 14.39 4.28958L14.28 4.47958C13.71 5.46958 12.88 6.02958 11.99 6.02958C11.1 6.02958 10.27 5.46958 9.7 4.47958L9.59 4.27958C9.34 3.85958 8.78 3.70958 8.35 3.95958L6.62 4.95958C6.36 5.10958 6.16 5.35958 6.08 5.65958C6 5.95958 6.04 6.26958 6.19 6.52958C6.76 7.50958 6.83 8.51958 6.39 9.28958C5.95 10.0596 5.04 10.4996 3.9 10.4996C3.26 10.4996 2.75 11.0096 2.75 11.6496V13.4096C2.75 14.0396 3.26 14.5596 3.9 14.5596C5.04 14.5596 5.95 14.9996 6.39 15.7696C6.83 16.5396 6.76 17.5496 6.19 18.5296C6.04 18.7896 6 19.0996 6.08 19.3996C6.16 19.6996 6.35 19.9396 6.61 20.0996L8.34 21.0896C8.55 21.2196 8.8 21.2496 9.03 21.1896C9.27 21.1296 9.47 20.9696 9.6 20.7596L9.71 20.5696C10.28 19.5896 11.11 19.0196 12 19.0196Z" fill="white"/>
</svg>
