<svg width="161" height="75" viewBox="0 0 161 75" fill="none" xmlns="http://www.w3.org/2000/svg">
<path d="M131.541 74.8606C113.398 74.8606 102.37 63.5392 102.37 44.9483C102.37 26.1191 113.754 15.1553 131.541 15.1553C149.21 15.1553 160.594 26.1191 160.594 44.9483C160.594 63.5392 149.566 74.8606 131.541 74.8606ZM131.541 29.9326C123.241 29.9326 118.616 35.7721 118.616 44.8292C118.616 54.0054 123.122 59.964 131.423 59.964C139.842 59.964 144.467 54.0054 144.467 44.8292C144.467 35.7721 139.724 29.9326 131.541 29.9326Z" fill="#1A1A1A"/>
<path d="M98.0524 0.139648V73.1922H81.8066V0.139648H98.0524Z" fill="#1A1A1A"/>
<path d="M75.3552 0.139648V73.1922H59.1094V0.139648H75.3552Z" fill="#1A1A1A"/>
<path d="M28.5784 28.6217C21.4634 28.6217 17.313 31.9586 16.2458 39.9431H39.9623C39.488 32.4352 35.8119 28.6217 28.5784 28.6217ZM28.8155 74.7414C11.8582 74.7414 0 64.9692 0 46.14C0 26.5958 10.791 15.1553 29.0527 15.1553C46.3657 15.1553 54.7851 26.2383 54.7851 41.6115C54.7851 44.1141 54.7851 46.0209 54.5479 49.1194H16.1272C17.1945 57.2231 21.4634 60.7982 29.0527 60.7982C36.5234 60.7982 39.0136 57.1039 40.318 52.6945L54.3108 56.6272C51.5834 66.876 44.2313 74.7414 28.8155 74.7414Z" fill="#1A1A1A"/>
</svg>
