<svg width="488" height="289" viewBox="0 0 488 289" fill="none" xmlns="http://www.w3.org/2000/svg">
<path d="M488 111.577V94.6587C488 91.4325 486.621 88.3385 484.168 86.0572C481.714 83.7759 478.386 82.4943 474.915 82.4943H428.731C427.013 82.4943 425.311 82.1797 423.724 81.5684C422.136 80.9571 420.694 80.0611 419.479 78.9315C418.264 77.8019 417.3 76.4609 416.643 74.9851C415.985 73.5092 415.647 71.9274 415.647 70.33V53.4115C415.647 51.8141 415.985 50.2323 416.643 48.7564C417.3 47.2806 418.264 45.9396 419.479 44.81C420.694 43.6805 422.136 42.7844 423.724 42.1731C425.311 41.5618 427.013 41.2472 428.731 41.2472H430.189C433.66 41.2472 436.988 39.9656 439.442 37.6843C441.896 35.4031 443.274 32.309 443.274 29.0828V12.1644C443.274 8.93818 441.896 5.84412 439.442 3.56286C436.988 1.2816 433.66 0 430.189 0H88.148C84.6777 0 81.3496 1.2816 78.8958 3.56286C76.4419 5.84412 75.0634 8.93818 75.0634 12.1644V29.0828C75.0634 32.309 76.4419 35.4031 78.8958 37.6843C81.3496 39.9656 84.6777 41.2472 88.148 41.2472C91.6182 41.2472 94.9463 42.5288 97.4002 44.81C99.854 47.0913 101.233 50.1853 101.233 53.4115V70.33C101.233 73.5562 99.854 76.6502 97.4002 78.9315C94.9463 81.2127 91.6182 82.4943 88.148 82.4943H37.5487C34.0784 82.4943 30.7503 83.7759 28.2965 86.0572C25.8427 88.3385 24.4641 91.4325 24.4641 94.6587V111.577C24.4641 114.803 25.8427 117.897 28.2965 120.179C30.7503 122.46 34.0784 123.742 37.5487 123.742H57.4031C59.1214 123.742 60.8228 124.056 62.4103 124.667C63.9978 125.279 65.4403 126.175 66.6553 127.304C67.8703 128.434 68.8341 129.775 69.4917 131.251C70.1492 132.727 70.4877 134.308 70.4877 135.906V152.824C70.4877 154.422 70.1492 156.004 69.4917 157.48C68.8341 158.955 67.8703 160.296 66.6553 161.426C65.4403 162.555 63.9978 163.452 62.4103 164.063C60.8228 164.674 59.1214 164.989 57.4031 164.989H57.3551C53.8848 164.989 50.5567 166.27 48.1029 168.552C45.6491 170.833 44.2705 173.927 44.2705 177.153V194.071C44.2705 195.669 44.609 197.251 45.2665 198.727C45.9241 200.202 46.8879 201.543 48.1029 202.673C49.3179 203.803 50.7604 204.699 52.3479 205.31C53.9354 205.921 55.6368 206.236 57.3551 206.236H60.2276C63.6979 206.236 67.026 207.517 69.4798 209.799C71.9337 212.08 73.3122 215.174 73.3122 218.4V235.319C73.3122 238.545 71.9337 241.639 69.4798 243.92C67.026 246.202 63.6979 247.483 60.2276 247.483H13.0846C9.61434 247.483 6.28623 248.765 3.83239 251.046C1.37856 253.327 0 256.421 0 259.647V276.566C0 279.792 1.37856 282.886 3.83239 285.167C6.28623 287.449 9.61434 288.73 13.0846 288.73H437.214C440.684 288.73 444.013 287.449 446.466 285.167C448.92 282.886 450.299 279.792 450.299 276.566V259.647C450.299 256.421 448.92 253.327 446.466 251.046C444.013 248.765 440.684 247.483 437.214 247.483H425.869C422.399 247.483 419.071 246.202 416.617 243.92C414.163 241.639 412.785 238.545 412.785 235.319V218.4C412.785 215.174 414.163 212.08 416.617 209.799C419.071 207.517 422.399 206.236 425.869 206.236H452.62C454.338 206.236 456.039 205.921 457.627 205.31C459.214 204.699 460.657 203.803 461.872 202.673C463.087 201.543 464.051 200.202 464.708 198.727C465.366 197.251 465.704 195.669 465.704 194.071V177.153C465.704 173.927 464.326 170.833 461.872 168.552C459.418 166.27 456.09 164.989 452.62 164.989H444.505C442.786 164.989 441.085 164.674 439.497 164.063C437.91 163.452 436.468 162.555 435.253 161.426C434.038 160.296 433.074 158.955 432.416 157.48C431.759 156.004 431.42 154.422 431.42 152.824V135.906C431.42 134.308 431.759 132.727 432.416 131.251C433.074 129.775 434.038 128.434 435.253 127.304C436.468 126.175 437.91 125.279 439.497 124.667C441.085 124.056 442.786 123.742 444.505 123.742H474.915C478.386 123.742 481.714 122.46 484.168 120.179C486.621 117.897 488 114.803 488 111.577Z" fill="#DCDDDE"/>
<path d="M296.422 121.855H136.52V257.12H296.422V121.855Z" fill="#888585" fill-opacity="0.95"/>
<path d="M380.914 122.355V256.62H296.921V122.355H380.914Z" fill="#888585" stroke="#969696"/>
<path d="M381.414 122.19H296.421L325.533 85.2732C325.812 84.9198 326.176 84.6323 326.597 84.4342C327.017 84.2361 327.482 84.1328 327.954 84.1328H405.504C406.059 84.1328 406.603 84.2757 407.075 84.5455C407.548 84.8154 407.931 85.2017 408.181 85.6616C408.432 86.1215 408.541 86.6369 408.496 87.1508C408.45 87.6647 408.253 88.1568 407.925 88.5726L381.414 122.19Z" fill="#8C8A8A"/>
<path d="M136.915 122.19H221.908L192.796 85.2732C192.517 84.9198 192.152 84.6323 191.732 84.4342C191.311 84.2361 190.847 84.1328 190.375 84.1328H112.824C112.27 84.1328 111.726 84.2757 111.254 84.5455C110.781 84.8154 110.398 85.2017 110.147 85.6616C109.897 86.1215 109.788 86.6369 109.833 87.1508C109.879 87.6647 110.076 88.1568 110.404 88.5726L136.915 122.19Z" fill="#8B8B8B"/>
<path d="M429.366 171.486L381.415 122.193V176.098H427.093C427.668 176.098 428.231 175.945 428.714 175.656C429.198 175.367 429.582 174.956 429.822 174.47C430.061 173.984 430.145 173.445 430.064 172.916C429.984 172.387 429.741 171.89 429.366 171.486Z" fill="#8B8B8B"/>
<path d="M276.759 49.3066H165.862V122.19H276.759V49.3066Z" fill="#A6A5A5"/>
<path d="M218.068 126.691H187.558C186.969 126.691 186.391 126.547 185.881 126.273C185.371 125.999 184.947 125.606 184.653 125.131C184.358 124.657 184.203 124.119 184.203 123.572C184.203 123.024 184.358 122.486 184.653 122.012L199.908 97.448L215.163 72.8838C215.457 72.4097 215.881 72.0159 216.391 71.7421C216.901 71.4684 217.479 71.3242 218.068 71.3242C218.657 71.3242 219.236 71.4684 219.746 71.7421C220.256 72.0159 220.68 72.4097 220.974 72.8838L236.229 97.448L251.484 122.012C251.779 122.486 251.934 123.024 251.934 123.572C251.934 124.119 251.779 124.657 251.484 125.131C251.19 125.606 250.766 125.999 250.256 126.273C249.746 126.547 249.167 126.691 248.578 126.691H218.068Z" fill="#E1E4E5"/>
<path d="M219.748 86.6873C219.748 85.8256 218.997 85.127 218.07 85.127C217.143 85.127 216.392 85.8256 216.392 86.6873V109.95C216.392 110.811 217.143 111.51 218.07 111.51C218.997 111.51 219.748 110.811 219.748 109.95V86.6873Z" fill="#7A7A7A"/>
<path d="M222.065 117.982C222.283 115.93 220.671 114.102 218.464 113.899C216.257 113.695 214.291 115.194 214.072 117.246C213.854 119.298 215.466 121.126 217.673 121.329C219.88 121.532 221.846 120.033 222.065 117.982Z" fill="#7A7A7A"/>
<path d="M244.667 176.098H92.6916C92.1168 176.098 91.5541 175.945 91.0704 175.656C90.5867 175.368 90.2024 174.956 89.963 174.47C89.7237 173.984 89.6394 173.445 89.7203 172.916C89.8011 172.387 90.0437 171.89 90.4192 171.486L136.159 122.193H296.061L246.94 175.131C246.658 175.434 246.309 175.678 245.917 175.845C245.525 176.012 245.099 176.098 244.667 176.098Z" fill="#979595"/>
<path d="M102.65 282.169C109.811 282.169 115.615 276.773 115.615 270.116C115.615 263.459 109.811 258.062 102.65 258.062C95.4897 258.062 89.6851 263.459 89.6851 270.116C89.6851 276.773 95.4897 282.169 102.65 282.169Z" fill="#BDBFBF"/>
<path d="M112.058 244.574C115.771 244.574 118.781 241.776 118.781 238.324C118.781 234.872 115.771 232.074 112.058 232.074C108.345 232.074 105.335 234.872 105.335 238.324C105.335 241.776 108.345 244.574 112.058 244.574Z" fill="#BDBFBF"/>
<path d="M138.681 280.384C143.985 280.384 148.285 276.387 148.285 271.456C148.285 266.525 143.985 262.527 138.681 262.527C133.377 262.527 129.077 266.525 129.077 271.456C129.077 276.387 133.377 280.384 138.681 280.384Z" fill="#BDBFBF"/>
<path d="M89.9079 118.438C98.4274 118.438 105.334 112.017 105.334 104.097C105.334 96.1766 98.4274 89.7559 89.9079 89.7559C81.3884 89.7559 74.4819 96.1766 74.4819 104.097C74.4819 112.017 81.3884 118.438 89.9079 118.438Z" fill="#BDBFBF"/>
<path d="M60.4316 101.35C64.8693 101.35 68.4667 98.0058 68.4667 93.8802C68.4667 89.7546 64.8693 86.4102 60.4316 86.4102C55.9939 86.4102 52.3965 89.7546 52.3965 93.8802C52.3965 98.0058 55.9939 101.35 60.4316 101.35Z" fill="#BDBFBF"/>
<path d="M67.8116 72.7975C70.3714 72.7975 72.4465 70.8683 72.4465 68.4886C72.4465 66.1088 70.3714 64.1797 67.8116 64.1797C65.2519 64.1797 63.1768 66.1088 63.1768 68.4886C63.1768 70.8683 65.2519 72.7975 67.8116 72.7975Z" fill="#BDBFBF"/>
<path d="M93.4697 81.8679C99.6061 81.8679 104.581 77.2432 104.581 71.5384C104.581 65.8336 99.6061 61.209 93.4697 61.209C87.3334 61.209 82.3589 65.8336 82.3589 71.5384C82.3589 77.2432 87.3334 81.8679 93.4697 81.8679Z" fill="#BDBFBF"/>
<path d="M358.033 48.8833C366.553 48.8833 373.459 42.4626 373.459 34.5422C373.459 26.6219 366.553 20.2012 358.033 20.2012C349.514 20.2012 342.607 26.6219 342.607 34.5422C342.607 42.4626 349.514 48.8833 358.033 48.8833Z" fill="#BDBFBF"/>
<path d="M382.579 23.7213C387.016 23.7213 390.614 20.3768 390.614 16.2513C390.614 12.1257 387.016 8.78125 382.579 8.78125C378.141 8.78125 374.543 12.1257 374.543 16.2513C374.543 20.3768 378.141 23.7213 382.579 23.7213Z" fill="#BDBFBF"/>
<path d="M413.271 63.7079C417.112 63.7079 420.226 60.8133 420.226 57.2426C420.226 53.672 417.112 50.7773 413.271 50.7773C409.43 50.7773 406.317 53.672 406.317 57.2426C406.317 60.8133 409.43 63.7079 413.271 63.7079Z" fill="#BDBFBF"/>
<path d="M402.245 39.4713C404.805 39.4713 406.88 37.5422 406.88 35.1624C406.88 32.7827 404.805 30.8535 402.245 30.8535C399.685 30.8535 397.61 32.7827 397.61 35.1624C397.61 37.5422 399.685 39.4713 402.245 39.4713Z" fill="#BDBFBF"/>
<path d="M386.276 64.407C392.413 64.407 397.387 59.7823 397.387 54.0775C397.387 48.3727 392.413 43.748 386.276 43.748C380.14 43.748 375.166 48.3727 375.166 54.0775C375.166 59.7823 380.14 64.407 386.276 64.407Z" fill="#BDBFBF"/>
</svg>
