<svg width="92" height="43" viewBox="0 0 92 43" fill="none" xmlns="http://www.w3.org/2000/svg">
<path d="M74.8697 42.5294C64.5432 42.5294 58.2662 36.0856 58.2662 25.5042C58.2662 14.7872 64.7456 8.54688 74.8697 8.54688C84.9263 8.54688 91.4057 14.7872 91.4057 25.5042C91.4057 36.0856 85.1288 42.5294 74.8697 42.5294ZM74.8697 16.9577C70.1451 16.9577 67.5129 20.2814 67.5129 25.4364C67.5129 30.6593 70.0776 34.0507 74.8022 34.0507C79.5943 34.0507 82.2265 30.6593 82.2265 25.4364C82.2265 20.2814 79.5268 16.9577 74.8697 16.9577Z" fill="white"/>
<path d="M55.8089 0V41.5794H46.5623V0H55.8089Z" fill="white"/>
<path d="M42.8899 0V41.5794H33.6433V0H42.8899Z" fill="white"/>
<path d="M16.266 16.2116C12.2164 16.2116 9.85408 18.1108 9.24664 22.6554H22.7454C22.4754 18.3821 20.3831 16.2116 16.266 16.2116ZM16.401 42.4616C6.74937 42.4616 0 36.8996 0 26.1825C0 15.0585 6.14193 8.54688 16.536 8.54688C26.39 8.54688 31.1821 14.855 31.1821 23.605C31.1821 25.0294 31.1821 26.1147 31.0471 27.8782H9.17915C9.78659 32.4906 12.2164 34.5255 16.536 34.5255C20.7881 34.5255 22.2054 32.4228 22.9479 29.9131L30.9121 32.1515C29.3598 37.9848 25.1752 42.4616 16.401 42.4616Z" fill="white"/>
</svg>
