<svg width="150" height="70" viewBox="0 0 150 70" fill="none" xmlns="http://www.w3.org/2000/svg">
<path d="M122.712 69.9996C105.82 69.9996 95.5518 59.459 95.5518 42.1501C95.5518 24.6194 106.151 14.4116 122.712 14.4116C139.162 14.4116 149.761 24.6194 149.761 42.1501C149.761 59.459 139.493 69.9996 122.712 69.9996ZM122.712 28.1699C114.983 28.1699 110.677 33.6067 110.677 42.0392C110.677 50.5826 114.873 56.1304 122.601 56.1304C130.44 56.1304 134.746 50.5826 134.746 42.0392C134.746 33.6067 130.33 28.1699 122.712 28.1699Z" fill="#1A1A1A"/>
<path d="M91.5309 0.430664V68.4455H76.4053V0.430664H91.5309Z" fill="#1A1A1A"/>
<path d="M70.4001 0.430664V68.4455H55.2744V0.430664H70.4001Z" fill="#1A1A1A"/>
<path d="M26.8471 26.9494C20.2228 26.9494 16.3586 30.0561 15.3649 37.4901H37.4461C37.0045 30.5 33.5819 26.9494 26.8471 26.9494ZM27.068 69.8887C11.2799 69.8887 0.239258 60.7904 0.239258 43.2597C0.239258 25.0632 10.2862 14.4116 27.2888 14.4116C43.4081 14.4116 51.2469 24.7303 51.2469 39.0434C51.2469 41.3735 51.2469 43.1487 51.0261 46.0335H15.2545C16.2482 53.5784 20.2228 56.907 27.2888 56.907C34.2444 56.907 36.5629 53.4674 37.7774 49.3621L50.8053 53.0236C48.2659 62.5657 41.4208 69.8887 27.068 69.8887Z" fill="#1A1A1A"/>
</svg>
